<svg xmlns="http://www.w3.org/2000/svg" class="w-6 h-6" width="24" height="24" viewBox="0 0 24 24" fill="none"><path d="M16 17V8H7C6.44772 8 6 7.55228 6 7C6 6.44772 6.44772 6 7 6H17L17.1025 6.00488C17.6067 6.05621 18 6.48232 18 7V17C18 17.5523 17.5523 18 17 18C16.4477 18 16 17.5523 16 17Z" fill="#4ADE80FF" style="fill-opacity:1;"/><path d="M16.3692 6.22461C16.762 5.90426 17.341 5.92685 17.7071 6.29297C18.0732 6.65909 18.0958 7.23809 17.7754 7.63086L17.7071 7.70703L7.70708 17.707C7.31655 18.0976 6.68354 18.0976 6.29302 17.707C5.90249 17.3165 5.90249 16.6835 6.29302 16.293L16.293 6.29297L16.3692 6.22461Z" fill="#4ADE80FF" style="fill-opacity:1;"/></svg>