<svg xmlns="http://www.w3.org/2000/svg" class="w-6 h-6" width="24" height="24" viewBox="0 0 24 24" fill="none"><path d="M6.29298 6.29298C6.65909 5.92686 7.2381 5.90427 7.63087 6.22462L7.70704 6.29298L17.707 16.293L17.7754 16.3692C18.0958 16.7619 18.0732 17.3409 17.707 17.707C17.3409 18.0732 16.7619 18.0958 16.3692 17.7754L16.293 17.707L6.29298 7.70704L6.22462 7.63087C5.90427 7.2381 5.92686 6.65909 6.29298 6.29298Z" fill="#FB923CFF" style="fill-opacity:1;"/><path d="M16 7C16 6.44772 16.4477 6 17 6C17.5523 6 18 6.44772 18 7V17C18 17.5523 17.5523 18 17 18H7C6.44772 18 6 17.5523 6 17C6 16.4477 6.44772 16 7 16H16V7Z" fill="#FB923CFF" style="fill-opacity:1;"/></svg>