<svg xmlns="http://www.w3.org/2000/svg" class="w-6 h-6" width="24" height="24" viewBox="0 0 24 24" fill="none"><path d="M20 5C20 4.44772 19.5523 4 19 4H5C4.44772 4 4 4.44772 4 5V19C4 19.5523 4.44772 20 5 20H19C19.5523 20 20 19.5523 20 19V5ZM22 19C22 20.6569 20.6569 22 19 22H5C3.34315 22 2 20.6569 2 19V5C2 3.34315 3.34315 2 5 2H19C20.6569 2 22 3.34315 22 5V19Z" fill="#FFFFFFFF" style="fill-opacity:1;"/><path d="M14.3692 9.2246C14.7619 8.90425 15.3409 8.92685 15.707 9.29296C16.0732 9.65908 16.0958 10.2381 15.7754 10.6309L15.707 10.707L11.707 14.707C11.3409 15.0731 10.7619 15.0957 10.3692 14.7754L10.293 14.707L8.29298 12.707L8.22462 12.6309C7.90427 12.2381 7.92686 11.6591 8.29298 11.293C8.65909 10.9268 9.2381 10.9043 9.63087 11.2246L9.70704 11.293L11 12.5859L14.293 9.29296L14.3692 9.2246Z" fill="#FFFFFFFF" style="fill-opacity:1;"/></svg>