<svg xmlns="http://www.w3.org/2000/svg" class="w-6 h-6" width="24" height="24" viewBox="0 0 24 24" fill="none"><path d="M17.293 5.29295C17.6835 4.90243 18.3165 4.90243 18.707 5.29295C19.0976 5.68348 19.0976 6.31649 18.707 6.70702L7.70704 17.707C7.31652 18.0975 6.6835 18.0975 6.29298 17.707L1.29298 12.707L1.22462 12.6308C0.904269 12.2381 0.926863 11.6591 1.29298 11.293C1.65909 10.9268 2.2381 10.9042 2.63087 11.2246L2.70704 11.293L7.00001 15.5859L17.293 5.29295Z" fill="#16A34AFF" style="fill-opacity:1;"/><path d="M21.3692 9.22462C21.7619 8.90427 22.3409 8.92686 22.707 9.29298C23.0732 9.65909 23.0958 10.2381 22.7754 10.6309L22.707 10.707L15.207 18.207C14.8409 18.5732 14.2619 18.5958 13.8692 18.2754L13.793 18.207L12.293 16.707L12.2246 16.6309C11.9043 16.2381 11.9269 15.6591 12.293 15.293C12.6591 14.9269 13.2381 14.9043 13.6309 15.2246L13.707 15.293L14.5 16.0859L21.293 9.29298L21.3692 9.22462Z" fill="#16A34AFF" style="fill-opacity:1;"/></svg>