<svg xmlns="http://www.w3.org/2000/svg" class="w-6 h-6" width="24" height="24" viewBox="0 0 24 24" fill="none"><path d="M2 19V5C2 4.20435 2.3163 3.44152 2.87891 2.87891C3.44152 2.3163 4.20435 2 5 2H12C12.5523 2 13 2.44772 13 3C13 3.55228 12.5523 4 12 4H5C4.73478 4 4.48051 4.10543 4.29297 4.29297C4.10543 4.48051 4 4.73478 4 5V19C4 19.2652 4.10543 19.5195 4.29297 19.707C4.48051 19.8946 4.73478 20 5 20H19C19.2652 20 19.5195 19.8946 19.707 19.707C19.8946 19.5195 20 19.2652 20 19V12C20 11.4477 20.4477 11 21 11C21.5523 11 22 11.4477 22 12V19C22 19.7957 21.6837 20.5585 21.1211 21.1211C20.5585 21.6837 19.7957 22 19 22H5C4.20435 22 3.44152 21.6837 2.87891 21.1211C2.3163 20.5585 2 19.7956 2 19Z" fill="#6947FF" style="fill-opacity:1;"/><path d="M20.9911 4.0144C20.9657 3.75761 20.8519 3.51586 20.6679 3.33179C20.4576 3.1216 20.1722 3.00366 19.8749 3.00366C19.6146 3.00368 19.3635 3.09399 19.164 3.25757L19.0819 3.33179L10.0692 12.3464H10.0683C9.94963 12.4649 9.86262 12.6114 9.81533 12.7722L9.23135 14.7673L11.2284 14.1843L11.3466 14.1414C11.4232 14.1081 11.4954 14.0656 11.5614 14.0144L11.6552 13.9314L20.6679 4.91772L20.7421 4.83569C20.9057 4.63613 20.996 4.38505 20.996 4.12476L20.9911 4.0144ZM22.9921 4.28003C22.9563 4.99996 22.6722 5.68515 22.1884 6.21948L22.0819 6.33179L13.0692 15.3464C12.7131 15.7023 12.2723 15.9621 11.789 16.1033L11.7899 16.1042L8.9169 16.9441H8.91592C8.65784 17.0193 8.38434 17.0235 8.12393 16.9568C7.86345 16.8901 7.6256 16.7544 7.43545 16.5642C7.24549 16.3742 7.10963 16.137 7.04287 15.8767C6.97614 15.6162 6.98028 15.3419 7.05557 15.0837H7.05655L7.89639 12.2107V12.2097L7.95498 12.03C8.08342 11.6765 8.27724 11.35 8.52627 11.0681L8.65518 10.9314L17.6679 1.91772L17.7802 1.81128C18.3527 1.29285 19.0989 1.00369 19.8749 1.00366C20.7027 1.00366 21.4966 1.33246 22.0819 1.91772C22.6672 2.50303 22.9959 3.29701 22.996 4.12476L22.9921 4.28003Z" fill="#6947FF" style="fill-opacity:1;"/></svg>