<svg class="w-6 h-6" width="24" height="24" viewBox="0 0 24 24" fill="none" xmlns="http://www.w3.org/2000/svg"><path d="M14.0612 13.7734C14.5666 13.6612 15.0679 13.9534 15.2272 14.4346L15.2545 14.5332L15.9762 17.7832C16.0959 18.3223 15.7556 18.8568 15.2164 18.9766C14.6775 19.0961 14.1438 18.7558 14.0241 18.2168L13.3014 14.9668L13.2848 14.8662C13.2253 14.3628 13.5556 13.8858 14.0612 13.7734Z" fill="#BDC1CA" style="fill-opacity:1;"/><path d="M1.6572 7.06055C2.14345 6.88313 2.67832 7.10662 2.89939 7.5625L2.93943 7.65723L3.07322 8.00293C3.77328 9.71416 4.9515 11.191 6.47068 12.2539C8.09141 13.3878 10.022 13.9961 12 13.9961C13.978 13.9961 15.9085 13.3878 17.5293 12.2539C19.1499 11.1201 20.3825 9.51523 21.0605 7.65723C21.2498 7.13842 21.8239 6.87125 22.3428 7.06055C22.8616 7.24987 23.1287 7.82396 22.9394 8.34277C22.1208 10.5861 20.6324 12.5236 18.6758 13.8926C16.7189 15.2615 14.3881 15.9961 12 15.9961C9.61184 15.9961 7.28101 15.2615 5.3242 13.8926C3.48982 12.6092 2.06686 10.8261 1.22166 8.75977L1.06052 8.34277L1.03025 8.24512C0.905437 7.75383 1.17078 7.23805 1.6572 7.06055Z" fill="#BDC1CA" style="fill-opacity:1;"/><path d="M20.7652 14.3562C21.1206 14.7787 21.0665 15.4098 20.6441 15.7654C20.2217 16.1209 19.5906 16.0666 19.2349 15.6443L20.7652 14.3562ZM17.6295 12.1854C18.0256 11.8518 18.6054 11.8783 18.9693 12.2312L19.0387 12.3055L20.7652 14.3562L19.9996 14.9998L19.2349 15.6443L17.5094 13.5945L17.4469 13.5125C17.1615 13.0939 17.2338 12.5188 17.6295 12.1854Z" fill="#BDC1CA" style="fill-opacity:1;"/><path d="M4.76465 15.6443C4.40889 16.0665 3.77784 16.121 3.35547 15.7654C2.93303 15.4097 2.87968 14.7787 3.23535 14.3562L4.76465 15.6443ZM5.03125 12.2312C5.3952 11.8786 5.97408 11.8519 6.37011 12.1853C6.79242 12.5411 6.84686 13.1721 6.49121 13.5945L4.76465 15.6443L3.23535 14.3562L4.96093 12.3055L5.03125 12.2312Z" fill="#BDC1CA" style="fill-opacity:1;"/><path d="M8.77341 14.4346C8.93272 13.9536 9.43316 13.6614 9.93845 13.7734C10.4776 13.8932 10.8179 14.4277 10.6982 14.9668L9.97654 18.2168C9.85678 18.7559 9.32227 19.0962 8.78318 18.9766C8.24408 18.8568 7.90373 18.3223 8.02341 17.7832L8.74607 14.5332L8.77341 14.4346Z" fill="#BDC1CA" style="fill-opacity:1;"/></svg>