<svg xmlns="http://www.w3.org/2000/svg" class="w-6 h-6" width="24" height="24" viewBox="0 0 24 24" fill="none"><path d="M19 21C19.5523 21 20 21.4477 20 22C20 22.5523 19.5523 23 19 23H5C4.44772 23 4 22.5523 4 22C4 21.4477 4.44772 21 5 21H19Z" fill="#FFFFFFFF" style="fill-opacity:1;"/><path d="M19 1C19.5523 1 20 1.44772 20 2C20 2.55228 19.5523 3 19 3H5C4.44772 3 4 2.55228 4 2C4 1.44772 4.44772 1 5 1H19Z" fill="#FFFFFFFF" style="fill-opacity:1;"/><path d="M16 22V17.8281C15.9999 17.5961 15.9193 17.3723 15.7734 17.1943L15.707 17.1211L12 13.4141L8.29297 17.1211C8.10544 17.3086 8.00008 17.563 8 17.8281V22C8 22.5523 7.55228 23 7 23C6.44772 23 6 22.5523 6 22V17.8281C6.00017 17.0326 6.31636 16.2695 6.87891 15.707L11.293 11.293L11.3691 11.2246C11.7619 10.9043 12.3409 10.9269 12.707 11.293L17.1211 15.707L17.3203 15.9268C17.7578 16.4605 17.9999 17.132 18 17.8281V22C18 22.5523 17.5523 23 17 23C16.4477 23 16 22.5523 16 22Z" fill="#FFFFFFFF" style="fill-opacity:1;"/><path d="M6 6.17188V2C6 1.44772 6.44772 1 7 1C7.55228 1 8 1.44772 8 2V6.17188L8.00488 6.27051C8.02764 6.49945 8.12884 6.71482 8.29297 6.87891L12 10.5859L15.707 6.87891L15.7734 6.80566C15.8985 6.65312 15.9756 6.4668 15.9951 6.27051L16 6.17188V2C16 1.44772 16.4477 1 17 1C17.5523 1 18 1.44772 18 2V6.17188L17.9854 6.46875C17.9268 7.05734 17.6953 7.61577 17.3203 8.07324L17.1211 8.29297L12.707 12.707C12.5195 12.8946 12.2652 13 12 13C11.7348 13 11.4805 12.8946 11.293 12.707L6.87891 8.29297C6.3867 7.80083 6.08297 7.15536 6.01465 6.46875L6 6.17188Z" fill="#FFFFFFFF" style="fill-opacity:1;"/></svg>