<svg xmlns="http://www.w3.org/2000/svg" class="w-6 h-6" width="24" height="24" viewBox="0 0 24 24" fill="none"><path d="M19 5.99954C16.6805 5.99954 13.9706 4.66295 12.1104 3.03958V3.04056C12.0796 3.01426 12.0405 2.99954 12 2.99954C11.9595 2.99954 11.9204 3.01426 11.8896 3.04056L11.8887 3.03958C10.0971 4.60156 7.48931 5.91505 5.21875 5.99564L5 5.99954V12.9995L5.00879 13.4117C5.09782 15.4371 5.8465 16.9384 6.98633 18.106C8.07404 19.22 9.55305 20.0641 11.2539 20.7232L11.9961 20.9947L12.0186 21.0015C14.0236 20.3018 15.7728 19.381 17.0137 18.1079C18.229 16.861 19 15.2354 19 12.9995V5.99954ZM21 12.9995C21 15.7637 20.021 17.8888 18.4463 19.5044C16.8988 21.0921 14.8204 22.1442 12.6689 22.8941L12.6611 22.897C12.233 23.0421 11.7688 23.0369 11.3438 22.8843V22.8853C11.3379 22.8833 11.3321 22.8805 11.3262 22.8784C11.3246 22.8779 11.3228 22.878 11.3213 22.8775V22.8765C9.17204 22.132 7.09956 21.0847 5.55566 19.5034C4.07782 17.9898 3.12517 16.0278 3.01172 13.5113L3 12.9995V5.99954C3.00012 5.46927 3.21097 4.96045 3.58594 4.58548C3.96099 4.21055 4.46967 3.99954 5 3.99954L5.32129 3.98782C6.95847 3.8673 9.05353 2.86212 10.582 1.52689L10.5908 1.52005L10.7422 1.40091C11.1082 1.14059 11.5477 0.999542 12 0.999542C12.4523 0.999542 12.8918 1.14059 13.2578 1.40091L13.4092 1.52005L13.418 1.52689L13.7324 1.79153C15.3383 3.0868 17.4277 3.99954 19 3.99954C19.5303 3.99954 20.039 4.21055 20.4141 4.58548C20.789 4.96045 20.9999 5.46927 21 5.99954V12.9995Z" fill="#ffff" style="fill-opacity:1;"/><path d="M12.002 14.0008C13.4306 14.0012 14.8253 14.4388 15.9981 15.2547C17.0974 16.0196 17.9527 17.0828 18.4648 18.3162L18.5625 18.5652L18.5928 18.6629C18.7202 19.1534 18.4581 19.6702 17.9727 19.8504C17.4873 20.0304 16.951 19.8101 16.7275 19.3553L16.6875 19.2605L16.541 18.909C16.1693 18.102 15.5885 17.4063 14.8555 16.8963C14.0178 16.3135 13.0215 16.001 12.001 16.0008C10.9806 16.0005 9.98442 16.313 9.14649 16.8953C8.30865 17.4776 7.66903 18.3022 7.31348 19.2586C7.12102 19.7762 6.54501 20.0399 6.02735 19.8474C5.50976 19.655 5.24605 19.0789 5.43848 18.5613C5.93626 17.2224 6.83195 16.0679 8.00489 15.2527C9.17809 14.4374 10.5733 14.0004 12.002 14.0008Z" fill="#ffff" style="fill-opacity:1;"/><path d="M15 11C15 9.34315 13.6569 8 12 8C10.3431 8 9 9.34315 9 11C9 12.6569 10.3431 14 12 14C13.6569 14 15 12.6569 15 11ZM17 11C17 13.7614 14.7614 16 12 16C9.23858 16 7 13.7614 7 11C7 8.23858 9.23858 6 12 6C14.7614 6 17 8.23858 17 11Z" fill="#ffff" style="fill-opacity:1;"/></svg>