<svg xmlns="http://www.w3.org/2000/svg" xmlns:xlink="http://www.w3.org/1999/xlink" viewBox="0 0 228 152" width="228" height="152" preserveAspectRatio="xMidYMid meet" style="width: 100%; height: 100%; transform: translate3d(0px, 0px, 0px); content-visibility: visible;"><defs><clipPath id="__lottie_element_2"><rect width="228" height="152" x="0" y="0"></rect></clipPath><g id="__lottie_element_9"><g style="display: none;" transform="matrix(1,0,0,1,114,76)" opacity="1"><g opacity="1" transform="matrix(1,0,0,1,1.2139999866485596,-4.546000003814697)"><path fill="rgb(36,211,102)" fill-opacity="1" d=" M70.21399688720703,-48.95399856567383 C70.21399688720703,-48.95399856567383 70.21399688720703,48.95399856567383 70.21399688720703,48.95399856567383 C70.21399688720703,48.95399856567383 -70.21399688720703,48.95399856567383 -70.21399688720703,48.95399856567383 C-70.21399688720703,48.95399856567383 -70.21399688720703,-48.95399856567383 -70.21399688720703,-48.95399856567383 C-70.21399688720703,-48.95399856567383 70.21399688720703,-48.95399856567383 70.21399688720703,-48.95399856567383z"></path><path stroke-linecap="butt" stroke-linejoin="miter" fill-opacity="0" stroke-miterlimit="4" stroke="rgb(36,211,102)" stroke-opacity="1" stroke-width="0" d=" M70.21399688720703,-48.95399856567383 C70.21399688720703,-48.95399856567383 70.21399688720703,48.95399856567383 70.21399688720703,48.95399856567383 C70.21399688720703,48.95399856567383 -70.21399688720703,48.95399856567383 -70.21399688720703,48.95399856567383 C-70.21399688720703,48.95399856567383 -70.21399688720703,-48.95399856567383 -70.21399688720703,-48.95399856567383 C-70.21399688720703,-48.95399856567383 70.21399688720703,-48.95399856567383 70.21399688720703,-48.95399856567383z"></path></g></g></g><filter id="__lottie_element_15" filterUnits="objectBoundingBox" x="0%" y="0%" width="100%" height="100%"><feComponentTransfer in="SourceGraphic"><feFuncA type="table" tableValues="1.0 0.0"></feFuncA></feComponentTransfer></filter><mask id="__lottie_element_9_2" mask-type="alpha"><g filter="url(#__lottie_element_15)"><rect width="228" height="152" x="0" y="0" fill="#ffffff" opacity="0"></rect><use xlink:href="#__lottie_element_9"></use></g></mask></defs><g clip-path="url(#__lottie_element_2)"><g transform="matrix(1,0,0,1,63.944007873535156,86.0530014038086)" opacity="1" style="display: block;"><g opacity="1" transform="matrix(1,0,0,1,0,0)"></g><g opacity="1" transform="matrix(1,0,0,1,90.61900329589844,29.857999801635742)"><path fill="rgb(37,211,102)" fill-opacity="1" d=" M33.0890007019043,26.107999801635742 C33.0890007019043,26.107999801635742 51.29499816894531,-16.170000076293945 51.29499816894531,-16.170000076293945 C52.99399948120117,-20.117000579833984 50.11600112915039,-24.51799964904785 45.819000244140625,-24.542999267578125 C45.819000244140625,-24.542999267578125 -30.496999740600586,-26.107999801635742 -30.496999740600586,-26.107999801635742 C-30.496999740600586,-26.107999801635742 -52.99399948120117,26.107999801635742 -52.99399948120117,26.107999801635742 C-52.99399948120117,26.107999801635742 33.0890007019043,26.107999801635742 33.0890007019043,26.107999801635742z"></path><path stroke-linecap="round" stroke-linejoin="round" fill-opacity="0" stroke="rgb(17,27,33)" stroke-opacity="1" stroke-width="1.5" d=" M33.0890007019043,26.107999801635742 C33.0890007019043,26.107999801635742 51.29499816894531,-16.170000076293945 51.29499816894531,-16.170000076293945 C52.99399948120117,-20.117000579833984 50.11600112915039,-24.51799964904785 45.819000244140625,-24.542999267578125 C45.819000244140625,-24.542999267578125 -30.496999740600586,-26.107999801635742 -30.496999740600586,-26.107999801635742 C-30.496999740600586,-26.107999801635742 -52.99399948120117,26.107999801635742 -52.99399948120117,26.107999801635742 C-52.99399948120117,26.107999801635742 33.0890007019043,26.107999801635742 33.0890007019043,26.107999801635742z"></path></g><g opacity="1" transform="matrix(1,0,0,1,64.20700073242188,57.84700012207031)"><path fill="rgb(37,211,102)" fill-opacity="1" d=" M60.457000732421875,-4.014999866485596 C60.457000732421875,-4.014999866485596 -60.457000732421875,-4.014999866485596 -60.457000732421875,-4.014999866485596 C-60.457000732421875,0.40799999237060547 -57.172000885009766,4.014999866485596 -53.16899871826172,4.014999866485596 C-53.16899871826172,4.014999866485596 53.137001037597656,4.014999866485596 53.137001037597656,4.014999866485596 C57.1619987487793,4.014999866485596 60.42499923706055,0.3959999978542328 60.42499923706055,-4.014999866485596 C60.42499923706055,-4.014999866485596 60.457000732421875,-4.014999866485596 60.457000732421875,-4.014999866485596z"></path><path stroke-linecap="round" stroke-linejoin="round" fill-opacity="0" stroke="rgb(17,27,33)" stroke-opacity="1" stroke-width="1.5" d=" M60.457000732421875,-4.014999866485596 C60.457000732421875,-4.014999866485596 -60.457000732421875,-4.014999866485596 -60.457000732421875,-4.014999866485596 C-60.457000732421875,0.40799999237060547 -57.172000885009766,4.014999866485596 -53.16899871826172,4.014999866485596 C-53.16899871826172,4.014999866485596 53.137001037597656,4.014999866485596 53.137001037597656,4.014999866485596 C57.1619987487793,4.014999866485596 60.42499923706055,0.3959999978542328 60.42499923706055,-4.014999866485596 C60.42499923706055,-4.014999866485596 60.457000732421875,-4.014999866485596 60.457000732421875,-4.014999866485596z"></path></g></g><g transform="matrix(1,0,0,1,89.61199951171875,136.13499450683594)" opacity="1" style="display: block;"><g opacity="1" transform="matrix(1,0,0,1,19.038000106811523,5.756999969482422)"><path stroke-linecap="round" stroke-linejoin="round" fill-opacity="0" stroke="rgb(17,27,33)" stroke-opacity="1" stroke-width="1.5" d=" M15.288000106811523,-2.006999969482422 C15.288000106811523,-2.006999969482422 15.288000106811523,-2.006999969482422 15.288000106811523,-2.006999969482422 C15.288000106811523,0.20999999344348907 13.491000175476074,2.006999969482422 11.27400016784668,2.006999969482422 C11.27400016784668,2.006999969482422 -11.274999618530273,2.006999969482422 -11.274999618530273,2.006999969482422 C-13.491000175476074,2.006999969482422 -15.288000106811523,0.20999999344348907 -15.288000106811523,-2.006999969482422"></path></g></g><g transform="matrix(1,0,0,1,41.70800018310547,20.249000549316406)" opacity="1" style="display: block;"><g opacity="1" transform="matrix(1,0,0,1,26.052000045776367,51.41299819946289)"><path fill="rgb(230,255,218)" fill-opacity="1" d=" M22.301000595092773,47.66299819946289 C22.301000595092773,47.66299819946289 -14.79800033569336,47.66299819946289 -14.79800033569336,47.66299819946289 C-18.94099998474121,47.66299819946289 -22.301000595092773,43.96099853515625 -22.301000595092773,39.39500045776367 C-22.301000595092773,39.39500045776367 -22.301000595092773,-39.38399887084961 -22.301000595092773,-39.38399887084961 C-22.301000595092773,-43.94900131225586 -18.94099998474121,-47.66299819946289 -14.79800033569336,-47.66299819946289 C-14.79800033569336,-47.66299819946289 22.301000595092773,-47.66299819946289 22.301000595092773,-47.66299819946289"></path><path stroke-linecap="round" stroke-linejoin="round" fill-opacity="0" stroke="rgb(17,27,33)" stroke-opacity="1" stroke-width="1.5" d=" M22.301000595092773,47.66299819946289 C22.301000595092773,47.66299819946289 -14.79800033569336,47.66299819946289 -14.79800033569336,47.66299819946289 C-18.94099998474121,47.66299819946289 -22.301000595092773,43.96099853515625 -22.301000595092773,39.39500045776367 C-22.301000595092773,39.39500045776367 -22.301000595092773,-39.38399887084961 -22.301000595092773,-39.38399887084961 C-22.301000595092773,-43.94900131225586 -18.94099998474121,-47.66299819946289 -14.79800033569336,-47.66299819946289 C-14.79800033569336,-47.66299819946289 22.301000595092773,-47.66299819946289 22.301000595092773,-47.66299819946289"></path></g><g opacity="1" transform="matrix(1,0,0,1,0,0)"><path fill="rgb(255,255,255)" fill-opacity="1" d=" M14.0649995803833,46.224998474121094 C14.0649995803833,46.224998474121094 39.87900161743164,46.224998474121094 39.87900161743164,46.224998474121094"></path><path stroke-linecap="round" stroke-linejoin="round" fill-opacity="0" stroke="rgb(17,27,33)" stroke-opacity="1" stroke-width="1.5" d=" M14.0649995803833,46.224998474121094 C14.0649995803833,46.224998474121094 39.87900161743164,46.224998474121094 39.87900161743164,46.224998474121094"></path></g><g opacity="1" transform="matrix(1,0,0,1,0,0)"><path fill="rgb(255,255,255)" fill-opacity="1" d=" M14.0649995803833,54.654998779296875 C14.0649995803833,54.654998779296875 39.87900161743164,54.654998779296875 39.87900161743164,54.654998779296875"></path><path stroke-linecap="round" stroke-linejoin="round" fill-opacity="0" stroke="rgb(17,27,33)" stroke-opacity="1" stroke-width="1.5" d=" M14.0649995803833,54.654998779296875 C14.0649995803833,54.654998779296875 39.87900161743164,54.654998779296875 39.87900161743164,54.654998779296875"></path></g><g opacity="1" transform="matrix(1,0,0,1,94.77100372314453,51.41899871826172)"><path fill="rgb(252,245,235)" fill-opacity="1" d=" M-46.97100067138672,-47.66899871826172 C-46.97100067138672,-47.66899871826172 41.13999938964844,-47.66899871826172 41.13999938964844,-47.66899871826172 C44.36000061035156,-47.66899871826172 46.97100067138672,-45.05799865722656 46.97100067138672,-41.8390007019043 C46.97100067138672,-41.8390007019043 46.97100067138672,39.02399826049805 46.97100067138672,39.02399826049805 C46.97100067138672,43.790000915527344 43.44900131225586,47.66899871826172 39.12300109863281,47.66899871826172 C39.12300109863281,47.66899871826172 -46.97100067138672,47.66899871826172 -46.97100067138672,47.66899871826172 C-46.97100067138672,47.66899871826172 -46.97100067138672,-47.66899871826172 -46.97100067138672,-47.66899871826172z"></path><path stroke-linecap="round" stroke-linejoin="round" fill-opacity="0" stroke="rgb(17,27,33)" stroke-opacity="1" stroke-width="1.5" d=" M-46.97100067138672,-47.66899871826172 C-46.97100067138672,-47.66899871826172 41.13999938964844,-47.66899871826172 41.13999938964844,-47.66899871826172 C44.36000061035156,-47.66899871826172 46.97100067138672,-45.05799865722656 46.97100067138672,-41.8390007019043 C46.97100067138672,-41.8390007019043 46.97100067138672,39.02399826049805 46.97100067138672,39.02399826049805 C46.97100067138672,43.790000915527344 43.44900131225586,47.66899871826172 39.12300109863281,47.66899871826172 C39.12300109863281,47.66899871826172 -46.97100067138672,47.66899871826172 -46.97100067138672,47.66899871826172 C-46.97100067138672,47.66899871826172 -46.97100067138672,-47.66899871826172 -46.97100067138672,-47.66899871826172z"></path></g><g opacity="1" transform="matrix(1,0,0,1,13.694999694824219,12.829000473022461)"><path fill="rgb(255,255,255)" fill-opacity="1" d=" M-2.2170000076293945,-2.443000078201294 C-2.2170000076293945,-2.443000078201294 2.2170000076293945,2.443000078201294 2.2170000076293945,2.443000078201294"></path><path stroke-linecap="round" stroke-linejoin="round" fill-opacity="0" stroke="rgb(17,27,33)" stroke-opacity="1" stroke-width="1.5" d=" M-2.2170000076293945,-2.443000078201294 C-2.2170000076293945,-2.443000078201294 2.2170000076293945,2.443000078201294 2.2170000076293945,2.443000078201294"></path></g><g opacity="1" transform="matrix(1,0,0,1,13.597999572753906,12.722000122070312)"><path fill="rgb(255,255,255)" fill-opacity="1" d=" M-2.119999885559082,2.3359999656677246 C-2.119999885559082,2.3359999656677246 2.119999885559082,-2.3359999656677246 2.119999885559082,-2.3359999656677246"></path><path stroke-linecap="round" stroke-linejoin="round" fill-opacity="0" stroke="rgb(17,27,33)" stroke-opacity="1" stroke-width="1.5" d=" M-2.119999885559082,2.3359999656677246 C-2.119999885559082,2.3359999656677246 2.119999885559082,-2.3359999656677246 2.119999885559082,-2.3359999656677246"></path></g></g><g transform="matrix(1,0,0,1,110.947998046875,62.861000061035156)" opacity="1" style="display: block;"><g opacity="1" transform="matrix(1,0,0,1,31.454999923706055,23.736000061035156)"><path fill="rgb(255,255,255)" fill-opacity="1" d=" M-11.937000274658203,19.979000091552734 C-20.632999420166016,19.98699951171875 -27.690000534057617,12.368000030517578 -27.690000534057617,2.9579999446868896 C-27.690000534057617,2.9579999446868896 -27.690000534057617,-2.9100000858306885 -27.690000534057617,-2.9100000858306885 C-27.704999923706055,-12.319999694824219 -20.655000686645508,-19.945999145507812 -11.958999633789062,-19.95400047302246 C-11.958999633789062,-19.95400047302246 7.729000091552734,-19.979000091552734 7.729000091552734,-19.979000091552734 C16.424999237060547,-19.98699951171875 23.482999801635742,-12.366999626159668 23.482999801635742,-2.9579999446868896 C23.482999801635742,-2.9579999446868896 23.496999740600586,11.59000015258789 23.496999740600586,11.59000015258789 C23.496999740600586,11.59000015258789 27.180999755859375,17.733999252319336 27.180999755859375,17.733999252319336 C27.704999923706055,18.634000778198242 27.034000396728516,19.94700050354004 25.993000030517578,19.94700050354004 C25.993000030517578,19.94700050354004 -11.92199993133545,19.986000061035156 -11.92199993133545,19.986000061035156 C-11.92199993133545,19.986000061035156 -11.944000244140625,19.986000061035156 -11.944000244140625,19.986000061035156 C-11.944000244140625,19.986000061035156 -11.937000274658203,19.986000061035156 -11.937000274658203,19.986000061035156 C-11.937000274658203,19.986000061035156 -11.937000274658203,19.979000091552734 -11.937000274658203,19.979000091552734z"></path><path stroke-linecap="round" stroke-linejoin="round" fill-opacity="0" stroke="rgb(17,27,33)" stroke-opacity="1" stroke-width="1.5" d=" M-11.937000274658203,19.979000091552734 C-20.632999420166016,19.98699951171875 -27.690000534057617,12.368000030517578 -27.690000534057617,2.9579999446868896 C-27.690000534057617,2.9579999446868896 -27.690000534057617,-2.9100000858306885 -27.690000534057617,-2.9100000858306885 C-27.704999923706055,-12.319999694824219 -20.655000686645508,-19.945999145507812 -11.958999633789062,-19.95400047302246 C-11.958999633789062,-19.95400047302246 7.729000091552734,-19.979000091552734 7.729000091552734,-19.979000091552734 C16.424999237060547,-19.98699951171875 23.482999801635742,-12.366999626159668 23.482999801635742,-2.9579999446868896 C23.482999801635742,-2.9579999446868896 23.496999740600586,11.59000015258789 23.496999740600586,11.59000015258789 C23.496999740600586,11.59000015258789 27.180999755859375,17.733999252319336 27.180999755859375,17.733999252319336 C27.704999923706055,18.634000778198242 27.034000396728516,19.94700050354004 25.993000030517578,19.94700050354004 C25.993000030517578,19.94700050354004 -11.92199993133545,19.986000061035156 -11.92199993133545,19.986000061035156 C-11.92199993133545,19.986000061035156 -11.944000244140625,19.986000061035156 -11.944000244140625,19.986000061035156 C-11.944000244140625,19.986000061035156 -11.937000274658203,19.986000061035156 -11.937000274658203,19.986000061035156 C-11.937000274658203,19.986000061035156 -11.937000274658203,19.979000091552734 -11.937000274658203,19.979000091552734z"></path></g></g><g transform="matrix(0.9902680516242981,0.13917310535907745,-0.13917310535907745,0.9902680516242981,119.42517852783203,-0.5934066772460938)" opacity="1" style="display: block;"><g opacity="1" transform="matrix(1,0,0,1,24.027999877929688,29.145999908447266)"><path fill="rgb(230,255,218)" fill-opacity="1" d=" M-8.390000343322754,-25.253999710083008 C-8.901000022888184,-25.382999420166016 -9.428999900817871,-25.395999908447266 -9.944000244140625,-25.292999267578125 C-10.458000183105469,-25.190000534057617 -10.947999954223633,-24.972000122070312 -11.381999969482422,-24.655000686645508 C-11.82699966430664,-24.35300064086914 -12.211000442504883,-23.95400047302246 -12.510000228881836,-23.482999801635742 C-12.809000015258789,-23.011999130249023 -13.015999794006348,-22.479000091552734 -13.118000030517578,-21.916000366210938 C-13.118000030517578,-21.916000366210938 -20.049999237060547,13.609999656677246 -20.049999237060547,13.609999656677246 C-20.277999877929688,14.779000282287598 -20.0939998626709,15.876999855041504 -19.48699951171875,16.886999130249023 C-19.211000442504883,17.374000549316406 -18.84600067138672,17.79599952697754 -18.416000366210938,18.124000549316406 C-17.985000610351562,18.45199966430664 -17.49799919128418,18.68000030517578 -16.985000610351562,18.795000076293945 C-16.985000610351562,18.795000076293945 10.279999732971191,25.253999710083008 10.279999732971191,25.253999710083008 C10.791000366210938,25.382999420166016 11.321000099182129,25.395999908447266 11.836999893188477,25.29199981689453 C12.352999687194824,25.187999725341797 12.843000411987305,24.9689998626709 13.277999877929688,24.649999618530273 C13.722000122070312,24.347999572753906 14.104000091552734,23.948999404907227 14.402000427246094,23.479000091552734 C14.699000358581543,23.009000778198242 14.904999732971191,22.47599983215332 15.008000373840332,21.915000915527344 C15.008000373840332,21.915000915527344 20.277999877929688,-5.093999862670898 20.277999877929688,-5.093999862670898 C20.277999877929688,-5.093999862670898 11.081000328063965,-20.641000747680664 11.081000328063965,-20.641000747680664 C11.081000328063965,-20.641000747680664 -8.390000343322754,-25.253999710083008 -8.390000343322754,-25.253999710083008z"></path><path stroke-linecap="round" stroke-linejoin="round" fill-opacity="0" stroke="rgb(17,27,33)" stroke-opacity="1" stroke-width="1.5" d=" M-8.390000343322754,-25.253999710083008 C-8.901000022888184,-25.382999420166016 -9.428999900817871,-25.395999908447266 -9.944000244140625,-25.292999267578125 C-10.458000183105469,-25.190000534057617 -10.947999954223633,-24.972000122070312 -11.381999969482422,-24.655000686645508 C-11.82699966430664,-24.35300064086914 -12.211000442504883,-23.95400047302246 -12.510000228881836,-23.482999801635742 C-12.809000015258789,-23.011999130249023 -13.015999794006348,-22.479000091552734 -13.118000030517578,-21.916000366210938 C-13.118000030517578,-21.916000366210938 -20.049999237060547,13.609999656677246 -20.049999237060547,13.609999656677246 C-20.277999877929688,14.779000282287598 -20.0939998626709,15.876999855041504 -19.48699951171875,16.886999130249023 C-19.211000442504883,17.374000549316406 -18.84600067138672,17.79599952697754 -18.416000366210938,18.124000549316406 C-17.985000610351562,18.45199966430664 -17.49799919128418,18.68000030517578 -16.985000610351562,18.795000076293945 C-16.985000610351562,18.795000076293945 10.279999732971191,25.253999710083008 10.279999732971191,25.253999710083008 C10.791000366210938,25.382999420166016 11.321000099182129,25.395999908447266 11.836999893188477,25.29199981689453 C12.352999687194824,25.187999725341797 12.843000411987305,24.9689998626709 13.277999877929688,24.649999618530273 C13.722000122070312,24.347999572753906 14.104000091552734,23.948999404907227 14.402000427246094,23.479000091552734 C14.699000358581543,23.009000778198242 14.904999732971191,22.47599983215332 15.008000373840332,21.915000915527344 C15.008000373840332,21.915000915527344 20.277999877929688,-5.093999862670898 20.277999877929688,-5.093999862670898 C20.277999877929688,-5.093999862670898 11.081000328063965,-20.641000747680664 11.081000328063965,-20.641000747680664 C11.081000328063965,-20.641000747680664 -8.390000343322754,-25.253999710083008 -8.390000343322754,-25.253999710083008z"></path></g><g opacity="1" transform="matrix(1,0,0,1,38.76100158691406,16.277000427246094)"><path fill="rgb(255,255,255)" fill-opacity="1" d=" M-2.2820000648498535,5.919000148773193 C-2.2820000648498535,5.919000148773193 5.539000034332275,7.771999835968018 5.539000034332275,7.771999835968018 C5.539000034332275,7.771999835968018 -3.6519999504089355,-7.771999835968018 -3.6519999504089355,-7.771999835968018 C-3.6519999504089355,-7.771999835968018 -5.321000099182129,0.781000018119812 -5.321000099182129,0.781000018119812 C-5.539000034332275,1.9019999504089355 -5.3420000076293945,3.072000026702881 -4.771999835968018,4.035999774932861 C-4.202000141143799,5 -3.306999921798706,5.676000118255615 -2.2820000648498535,5.919000148773193z"></path><path stroke-linecap="round" stroke-linejoin="round" fill-opacity="0" stroke="rgb(17,27,33)" stroke-opacity="1" stroke-width="1.5" d=" M-2.2820000648498535,5.919000148773193 C-2.2820000648498535,5.919000148773193 5.539000034332275,7.771999835968018 5.539000034332275,7.771999835968018 C5.539000034332275,7.771999835968018 -3.6519999504089355,-7.771999835968018 -3.6519999504089355,-7.771999835968018 C-3.6519999504089355,-7.771999835968018 -5.321000099182129,0.781000018119812 -5.321000099182129,0.781000018119812 C-5.539000034332275,1.9019999504089355 -5.3420000076293945,3.072000026702881 -4.771999835968018,4.035999774932861 C-4.202000141143799,5 -3.306999921798706,5.676000118255615 -2.2820000648498535,5.919000148773193z"></path></g><g opacity="1" transform="matrix(1,0,0,1,21.208999633789062,22.32900047302246)"><path fill="rgb(230,255,218)" fill-opacity="1" d=" M4.867000102996826,1.152999997138977 C4.867000102996826,1.152999997138977 -4.867000102996826,-1.152999997138977 -4.867000102996826,-1.152999997138977"></path><path stroke-linecap="round" stroke-linejoin="round" fill-opacity="0" stroke="rgb(17,27,33)" stroke-opacity="1" stroke-width="1.5" d=" M4.867000102996826,1.152999997138977 C4.867000102996826,1.152999997138977 -4.867000102996826,-1.152999997138977 -4.867000102996826,-1.152999997138977"></path></g><g opacity="1" transform="matrix(1,0,0,1,22.75200080871582,40.527000427246094)"><path fill="rgb(230,255,218)" fill-opacity="1" d=" M-9.736000061035156,-2.306999921798706 C-9.736000061035156,-2.306999921798706 9.736000061035156,2.306999921798706 9.736000061035156,2.306999921798706"></path><path stroke-linecap="round" stroke-linejoin="round" fill-opacity="0" stroke="rgb(17,27,33)" stroke-opacity="1" stroke-width="1.5" d=" M-9.736000061035156,-2.306999921798706 C-9.736000061035156,-2.306999921798706 9.736000061035156,2.306999921798706 9.736000061035156,2.306999921798706"></path></g><g opacity="1" transform="matrix(1,0,0,1,24.415000915527344,32.00400161743164)"><path fill="rgb(230,255,218)" fill-opacity="1" d=" M-9.736000061035156,-2.306999921798706 C-9.736000061035156,-2.306999921798706 9.736000061035156,2.306999921798706 9.736000061035156,2.306999921798706"></path><path stroke-linecap="round" stroke-linejoin="round" fill-opacity="0" stroke="rgb(17,27,33)" stroke-opacity="1" stroke-width="1.5" d=" M-9.736000061035156,-2.306999921798706 C-9.736000061035156,-2.306999921798706 9.736000061035156,2.306999921798706 9.736000061035156,2.306999921798706"></path></g></g><g transform="matrix(1,0,0,1,9.887998580932617,16.440998077392578)" opacity="1" style="display: block;"><g opacity="1" transform="matrix(1,0,0,1,25.413999557495117,36.22200012207031)"><path stroke-linecap="round" stroke-linejoin="round" fill-opacity="0" stroke="rgb(255,255,255)" stroke-opacity="1" stroke-width="1.5" d=" M17.333999633789062,-33.395999908447266 C-17.60099983215332,-29.83799934387207 -21.06599998474121,22.235000610351562 2.6440000534057617,13.854000091552734"></path></g></g><g mask="url(#__lottie_element_9_2)" style="display: block;"><g transform="matrix(0.9993834495544434,0.034899238497018814,-0.034899238497018814,0.9993834495544434,54.310577392578125,-2.336973190307617)" opacity="1"><g opacity="1" transform="matrix(1,0,0,1,22.27899932861328,21.972999572753906)"><path fill="rgb(255,255,255)" fill-opacity="1" d=" M0.44699999690055847,-4.078999996185303 C1.159000039100647,-4.130000114440918 1.4429999589920044,-3.114000082015991 0.7990000247955322,-2.819999933242798 C0.7990000247955322,-2.819999933242798 -12.29699993133545,3.1570000648498535 -12.29699993133545,3.1570000648498535 C-13.357999801635742,3.6410000324249268 -13.92300033569336,4.828000068664551 -13.666999816894531,6.0269999504089355 C-13.666999816894531,6.0269999504089355 -11.668999671936035,15.359000205993652 -11.668999671936035,15.359000205993652 C-11.239999771118164,17.358999252319336 -8.887999534606934,18.222999572753906 -7.445000171661377,16.910999298095703 C-7.445000171661377,16.910999298095703 17.0049991607666,-5.315999984741211 17.0049991607666,-5.315999984741211 C18.52899932861328,-6.701000213623047 17.81399917602539,-9.357999801635742 15.777000427246094,-9.878000259399414 C15.777000427246094,-9.878000259399414 -15.130999565124512,-17.760000228881836 -15.130999565124512,-17.760000228881836 C-16.941999435424805,-18.222000122070312 -18.530000686645508,-16.624000549316406 -18.124000549316406,-14.746000289916992 C-18.124000549316406,-14.746000289916992 -16.06999969482422,-5.250999927520752 -16.06999969482422,-5.250999927520752 C-15.782999992370605,-3.927000045776367 -14.583999633789062,-2.993000030517578 -13.289999961853027,-3.0869998931884766 C-13.289999961853027,-3.0869998931884766 0.44699999690055847,-4.078999996185303 0.44699999690055847,-4.078999996185303z"></path><path stroke-linecap="round" stroke-linejoin="round" fill-opacity="0" stroke="rgb(17,27,33)" stroke-opacity="1" stroke-width="1.5" d=" M0.44699999690055847,-4.078999996185303 C1.159000039100647,-4.130000114440918 1.4429999589920044,-3.114000082015991 0.7990000247955322,-2.819999933242798 C0.7990000247955322,-2.819999933242798 -12.29699993133545,3.1570000648498535 -12.29699993133545,3.1570000648498535 C-13.357999801635742,3.6410000324249268 -13.92300033569336,4.828000068664551 -13.666999816894531,6.0269999504089355 C-13.666999816894531,6.0269999504089355 -11.668999671936035,15.359000205993652 -11.668999671936035,15.359000205993652 C-11.239999771118164,17.358999252319336 -8.887999534606934,18.222999572753906 -7.445000171661377,16.910999298095703 C-7.445000171661377,16.910999298095703 17.0049991607666,-5.315999984741211 17.0049991607666,-5.315999984741211 C18.52899932861328,-6.701000213623047 17.81399917602539,-9.357999801635742 15.777000427246094,-9.878000259399414 C15.777000427246094,-9.878000259399414 -15.130999565124512,-17.760000228881836 -15.130999565124512,-17.760000228881836 C-16.941999435424805,-18.222000122070312 -18.530000686645508,-16.624000549316406 -18.124000549316406,-14.746000289916992 C-18.124000549316406,-14.746000289916992 -16.06999969482422,-5.250999927520752 -16.06999969482422,-5.250999927520752 C-15.782999992370605,-3.927000045776367 -14.583999633789062,-2.993000030517578 -13.289999961853027,-3.0869998931884766 C-13.289999961853027,-3.0869998931884766 0.44699999690055847,-4.078999996185303 0.44699999690055847,-4.078999996185303z"></path></g></g></g><g transform="matrix(1,0,0,1,27.814998626708984,74.32699584960938)" opacity="1" style="display: block;"><g opacity="1" transform="matrix(1,0,0,1,28.87700080871582,32.07899856567383)"><path fill="rgb(37,211,102)" fill-opacity="1" d=" M-5.676000118255615,-15.630000114440918 C-5.671999931335449,-16.106000900268555 -5.868000030517578,-16.513999938964844 -6.070000171661377,-16.95400047302246 C-7.974999904632568,-20.878999710083008 -10.63700008392334,-24.31800079345703 -13.803000450134277,-26.972000122070312 C-14.597000122070312,-27.611000061035156 -15.444000244140625,-28.25200080871582 -16.364999771118164,-28.29400062561035 C-16.98699951171875,-28.32900047302246 -17.579999923706055,-28.12299919128418 -18.145000457763672,-27.865999221801758 C-22.91699981689453,-25.608999252319336 -25.128000259399414,-19.062999725341797 -24.4950008392334,-13.102999687194824 C-23.854999542236328,-7.171000003814697 -20.934999465942383,-1.7710000276565552 -17.749000549316406,3.1480000019073486 C-10.937999725341797,13.687000274658203 -2.0420000553131104,23.315000534057617 8.899999618530273,26.736000061035156 C12.791999816894531,27.996000289916992 17.09600067138672,28.327999114990234 20.64299964904785,26.44099998474121 C23.038000106811523,25.14900016784668 25.128000259399414,22.285999298095703 24.367000579833984,19.326000213623047 C23.988000869750977,17.891000747680664 23.05299949645996,16.77199935913086 22.148000717163086,15.694000244140625 C20.121999740600586,13.309000015258789 18.093000411987305,10.937000274658203 16.07200050354004,8.583000183105469 C15.029999732971191,7.374000072479248 13.831999778747559,6.103000164031982 12.402000427246094,6.1479997634887695 C9.401000022888184,6.2230000495910645 8.57800006866455,11.711999893188477 5.625999927520752,12.005000114440918 C4.441999912261963,12.112000465393066 3.3450000286102295,11.378000259399414 2.3589999675750732,10.562999725341797 C-2.191999912261963,6.910999774932861 -5.453000068664551,2.2300000190734863 -8.595999717712402,-2.9079999923706055 C-9.937000274658203,-5.048999786376953 -10.647000312805176,-6.572999954223633 -9.87600040435791,-9.111000061035156 C-9.187000274658203,-11.32800006866455 -5.630000114440918,-13.458999633789062 -5.6579999923706055,-15.595999717712402 C-5.6579999923706055,-15.595999717712402 -5.6479997634887695,-15.635000228881836 -5.6479997634887695,-15.635000228881836 C-5.6479997634887695,-15.635000228881836 -5.672999858856201,-15.642999649047852 -5.672999858856201,-15.642999649047852 C-5.672999858856201,-15.642999649047852 -5.676000118255615,-15.630000114440918 -5.676000118255615,-15.630000114440918z"></path><path stroke-linecap="round" stroke-linejoin="round" fill-opacity="0" stroke="rgb(17,27,33)" stroke-opacity="1" stroke-width="1.5" d=" M-5.676000118255615,-15.630000114440918 C-5.671999931335449,-16.106000900268555 -5.868000030517578,-16.513999938964844 -6.070000171661377,-16.95400047302246 C-7.974999904632568,-20.878999710083008 -10.63700008392334,-24.31800079345703 -13.803000450134277,-26.972000122070312 C-14.597000122070312,-27.611000061035156 -15.444000244140625,-28.25200080871582 -16.364999771118164,-28.29400062561035 C-16.98699951171875,-28.32900047302246 -17.579999923706055,-28.12299919128418 -18.145000457763672,-27.865999221801758 C-22.91699981689453,-25.608999252319336 -25.128000259399414,-19.062999725341797 -24.4950008392334,-13.102999687194824 C-23.854999542236328,-7.171000003814697 -20.934999465942383,-1.7710000276565552 -17.749000549316406,3.1480000019073486 C-10.937999725341797,13.687000274658203 -2.0420000553131104,23.315000534057617 8.899999618530273,26.736000061035156 C12.791999816894531,27.996000289916992 17.09600067138672,28.327999114990234 20.64299964904785,26.44099998474121 C23.038000106811523,25.14900016784668 25.128000259399414,22.285999298095703 24.367000579833984,19.326000213623047 C23.988000869750977,17.891000747680664 23.05299949645996,16.77199935913086 22.148000717163086,15.694000244140625 C20.121999740600586,13.309000015258789 18.093000411987305,10.937000274658203 16.07200050354004,8.583000183105469 C15.029999732971191,7.374000072479248 13.831999778747559,6.103000164031982 12.402000427246094,6.1479997634887695 C9.401000022888184,6.2230000495910645 8.57800006866455,11.711999893188477 5.625999927520752,12.005000114440918 C4.441999912261963,12.112000465393066 3.3450000286102295,11.378000259399414 2.3589999675750732,10.562999725341797 C-2.191999912261963,6.910999774932861 -5.453000068664551,2.2300000190734863 -8.595999717712402,-2.9079999923706055 C-9.937000274658203,-5.048999786376953 -10.647000312805176,-6.572999954223633 -9.87600040435791,-9.111000061035156 C-9.187000274658203,-11.32800006866455 -5.630000114440918,-13.458999633789062 -5.6579999923706055,-15.595999717712402 C-5.6579999923706055,-15.595999717712402 -5.6479997634887695,-15.635000228881836 -5.6479997634887695,-15.635000228881836 C-5.6479997634887695,-15.635000228881836 -5.672999858856201,-15.642999649047852 -5.672999858856201,-15.642999649047852 C-5.672999858856201,-15.642999649047852 -5.676000118255615,-15.630000114440918 -5.676000118255615,-15.630000114440918z"></path></g></g></g></svg>