<svg xmlns="http://www.w3.org/2000/svg" class="w-6 h-6" width="24" height="24" viewBox="0 0 24 24" fill="none"><path d="M11.3692 4.22462C11.762 3.90427 12.341 3.92686 12.7071 4.29298L19.7071 11.293L19.7754 11.3692C20.0958 11.7619 20.0732 12.3409 19.7071 12.707C19.341 13.0732 18.762 13.0958 18.3692 12.7754L18.293 12.707L12 6.41407L5.70708 12.707C5.31655 13.0976 4.68354 13.0976 4.29302 12.707C3.90249 12.3165 3.90249 11.6835 4.29302 11.293L11.293 4.29298L11.3692 4.22462Z" fill="#D22A2AFF" style="fill-opacity:1;"/><path d="M11 19V5C11 4.44772 11.4477 4 12 4C12.5523 4 13 4.44772 13 5V19C13 19.5523 12.5523 20 12 20C11.4477 20 11 19.5523 11 19Z" fill="#D22A2AFF" style="fill-opacity:1;"/></svg>