<svg xmlns="http://www.w3.org/2000/svg" height="20" width="20" viewBox="0 0 640 640"><!--!Font Awesome Free v7.0.1 by @fontawesome - https://fontawesome.com License - https://fontawesome.com/license/free Copyright 2025 Fonticons, Inc.--><path fill="#ffffff" d="M256 272C300.2 272 336 236.2 336 192C336 147.8 300.2 112 256 112C211.8 112 176 147.8 176 192C176 236.2 211.8 272 256 272zM256 64C326.7 64 384 121.3 384 192C384 262.7 326.7 320 256 320C185.3 320 128 262.7 128 192C128 121.3 185.3 64 256 64zM208 416C137.3 416 80 473.3 80 544L80 552C80 565.3 69.3 576 56 576C42.7 576 32 565.3 32 552L32 544C32 446.8 110.8 368 208 368L304 368C401.2 368 480 446.8 480 544L480 552C480 565.3 469.3 576 456 576C442.7 576 432 565.3 432 552L432 544C432 473.3 374.7 416 304 416L208 416zM544 160C557.3 160 568 170.7 568 184L568 232L616 232C629.3 232 640 242.7 640 256C640 269.3 629.3 280 616 280L568 280L568 328C568 341.3 557.3 352 544 352C530.7 352 520 341.3 520 328L520 280L472 280C458.7 280 448 269.3 448 256C448 242.7 458.7 232 472 232L520 232L520 184C520 170.7 530.7 160 544 160z"/></svg>